<?xml version="1.0" encoding="utf-8"?>
<svg xmlns="http://www.w3.org/2000/svg" width="250" height="103" viewBox="0 0 78.95 83.519">
  <path d="m68.04 50.9c5.59-9.49-0.4-20.81-4.43-28.83 7.41-5.46 3.53-16.86-3.72-17-3.93-0.08-5.59 2.2-9.75 5.69-4.95-1.01-7.2-1.33-13.66-1.34-5.13 0-8.57 0.8-12.89 1.65-3.52-3.31-5.74-5.59-9.68-5.5-7.25 0.17-10.19 10.41-3.93 16.19l0.45 0.48c-5.4 9.32-6.55 18.05-4.27 27.97-2.03 8.07-3.45 17-3.45 27.28l69.03-0.03c-0.13-8.03-1.6-16.68-3.7-26.56zm-50.36-38.35c-0.35-0.47-0.27-0.49-0.72-1.08-0.25-0.36 0.11-0.55 0.52-0.39 1.27 0.47 1.71 1.8 1.71 1.8-0.45 1.63-1.01 0.45-1.51-0.33zm5.55 19.66c0.01-3.25 4.58-2.9 5.37-1.72 0.78 1.18-0.58 3.05-0.97 2.53-1.22-1.71-2.88-0.47-3.32 0.71-0.37 0.97-1.1 0.05-1.08-1.52zm14.06 30.7c-6.16-0.94-11.7-6.89-11.96-10.87-0.12-2.27 3.85-18.77 8.97-20.68 2.59-0.95 6.5-0.61 8.08 0.98 3.73 3.74 5.66 15.51 6.06 17.88 1.08 6.16-6.25 13.43-11.15 12.69zm13.21-30.28c-1.44-0.86-2.55-1.21-3.65-0.45-0.74 0.54-1.02-0.7-0.68-1.49 0.87-2.11 4.93-1.05 4.93 0.39 0 1.03-0.02 1.89-0.6 1.55zm6.84-19.1c-0.63 0.98-1.55 0.96-1.62 0.36-0.1-0.77 1.69-3.18 2.5-2.69s-0.11 1.21-0.88 2.33z" fill="#723E14"/>
  <path d="m43.78 47.46c-0.57-3.5-4.66-3.51-7.03-3.5-3.72 0.01-5.91 1.26-5.57 4.84 0.17 1.91 1.59 4.24 2.76 5.1 0.41 0.31 0.54 2.09-0.47 2.42-1.48 0.52-3.33-0.13-3.5 0.59-0.34 1.43 3.5 1.7 4.39 1.63 1.43-0.12 2.42-0.86 3.05-0.88 0.9-0.03 1.28 0.73 2.95 0.98 2.21 0.34 4.35-0.23 4.25-1.3-0.1-0.94-2.15-0.03-3.9-1.04-1.38-0.79-0.76-1.94-0.15-2.39 1.72-1.27 3.61-3.79 3.22-6.45z" fill="#723E14"/>
</svg>