<?xml version="1.0" encoding="utf-8"?>
<svg xmlns="http://www.w3.org/2000/svg" width="250" height="103" viewBox="0 0 250 103">
  <path d="m68.04 50.9c5.59-9.49-0.4-20.81-4.43-28.83 7.41-5.46 3.53-16.86-3.72-17-3.93-0.08-5.59 2.2-9.75 5.69-4.95-1.01-7.2-1.33-13.66-1.34-5.13 0-8.57 0.8-12.89 1.65-3.52-3.31-5.74-5.59-9.68-5.5-7.25 0.17-10.19 10.41-3.93 16.19l0.45 0.48c-5.4 9.32-6.55 18.05-4.27 27.97-2.03 8.07-3.45 17-3.45 27.28l69.03-0.03c-0.13-8.03-1.6-16.68-3.7-26.56zm-50.36-38.35c-0.35-0.47-0.27-0.49-0.72-1.08-0.25-0.36 0.11-0.55 0.52-0.39 1.27 0.47 1.71 1.8 1.71 1.8-0.45 1.63-1.01 0.45-1.51-0.33zm5.55 19.66c0.01-3.25 4.58-2.9 5.37-1.72 0.78 1.18-0.58 3.05-0.97 2.53-1.22-1.71-2.88-0.47-3.32 0.71-0.37 0.97-1.1 0.05-1.08-1.52zm14.06 30.7c-6.16-0.94-11.7-6.89-11.96-10.87-0.12-2.27 3.85-18.77 8.97-20.68 2.59-0.95 6.5-0.61 8.08 0.98 3.73 3.74 5.66 15.51 6.06 17.88 1.08 6.16-6.25 13.43-11.15 12.69zm13.21-30.28c-1.44-0.86-2.55-1.21-3.65-0.45-0.74 0.54-1.02-0.7-0.68-1.49 0.87-2.11 4.93-1.05 4.93 0.39 0 1.03-0.02 1.89-0.6 1.55zm6.84-19.1c-0.63 0.98-1.55 0.96-1.62 0.36-0.1-0.77 1.69-3.18 2.5-2.69s-0.11 1.21-0.88 2.33z" fill="white"/>
  <path d="m43.78 47.46c-0.57-3.5-4.66-3.51-7.03-3.5-3.72 0.01-5.91 1.26-5.57 4.84 0.17 1.91 1.59 4.24 2.76 5.1 0.41 0.31 0.54 2.09-0.47 2.42-1.48 0.52-3.33-0.13-3.5 0.59-0.34 1.43 3.5 1.7 4.39 1.63 1.43-0.12 2.42-0.86 3.05-0.88 0.9-0.03 1.28 0.73 2.95 0.98 2.21 0.34 4.35-0.23 4.25-1.3-0.1-0.94-2.15-0.03-3.9-1.04-1.38-0.79-0.76-1.94-0.15-2.39 1.72-1.27 3.61-3.79 3.22-6.45z" fill="white"/>
  <path d="m86.96 38.28v-2.36c2.51-0.24 2.88-0.58 2.88-2.8v-17.21c0-2.22-0.37-2.56-2.88-2.8v-2.36h11.72c6.95 0 10.31 2.44 10.31 6.78 0 3.18-2.3 5.13-4.78 6.11 3.49 0.78 6.04 3.05 6.04 6.63 0 4.81-3.98 8.01-11.49 8.01h-11.8zm8.7-24.73v9.11h2.26c3.86 0 5.33-1.95 5.33-4.72 0-2.83-1.63-4.39-5.08-4.39h-2.51zm0 12.06v8.41c0.85 0.29 1.79 0.45 3.06 0.45 3.82 0 5.61-1.91 5.61-5.04 0-2.82-1.71-4.24-5.82-4.24l-2.85 0.42z" fill="white"/>
  <path d="M 129.3 35.92 C 130.77 35.76 131.38 35.51 131.38 34.51 C 131.38 34.18 131.26 33.69 131.06 33.08 L 129.67 28.97 L 121.38 28.97 L 120.04 33.2 C 119.84 33.81 119.75 34.26 119.75 34.59 C 119.75 35.47 120.45 35.8 122.15 35.92 L 122.15 38.28 L 112.79 38.28 L 112.79 35.92 C 114.5 35.68 115.2 34.96 116.1 32.41 L 124.27 10.75 L 129.79 10.75 L 138.16 32.79 C 138.9 34.88 139.51 35.67 141.14 35.92 L 141.14 38.28 L 129.3 38.28 L 129.3 35.92 Z M 122.772 9.191 C 120.713 9.279 120.274 7.896 120.169 6.538 C 120.068 5.232 120.973 4.016 122.893 4.016 C 124.883 4.016 125.641 5.149 125.521 6.454 C 125.298 8.884 124.593 9.113 122.772 9.191 Z M 125.59 16.8 L 122.35 26.36 L 128.8 26.36 L 125.59 16.8 Z M 130.94 9.05 C 128.84 9.05 128.14 7.64 128.14 6.42 C 128.14 5.11 128.99 3.89 130.94 3.89 C 132.85 3.89 133.67 5.11 133.67 6.42 C 133.67 7.72 132.77 9.05 130.94 9.05 Z" fill="white" style=""/>
  <path d="m143.6 35.92c2.51-0.25 2.88-0.59 2.88-2.8v-17.21c0-2.22-0.37-2.56-2.88-2.8v-2.36h12.29c7.19 0 10.82 2.98 10.82 7.79 0 3.49-2.47 5.97-5.49 7.19l4.65 7.35c1.22 2.13 1.83 2.68 3.9 2.8v2.4h-6.86c-1.13-0.9-2.26-2.44-3.44-4.71l-3.86-6.65h-3.14v6.16c0 1.96 0.29 2.6 2.69 2.84v2.36h-11.56v-2.36zm10.94-22.32h-2.07v10.61h2.44c3.9 0 5.7-1.88 5.7-5.26 0-3.49-1.71-5.35-6.07-5.35z" fill="white"/>
  <path d="m172 35.92c2.52-0.24 2.89-0.58 2.89-2.8v-17.21c0-2.22-0.37-2.56-2.89-2.8v-2.36h20.96v6.53h-2.58c-1.04-3.2-1.74-3.8-4.37-3.8h-3.9v9.18h4.35c1.91 0 2.44-0.79 2.81-2.87h1.54v8.6h-1.54c-0.37-2.31-0.94-3.04-2.81-3.04h-4.35v9.49c1.17 0.29 2.39 0.45 4.27 0.45 3.58 0 4.93-0.86 5.97-4.67h2.26l-0.7 7.66h-21.91v-2.36z" fill="white"/>
  <path d="m204.8 17.57 0.08 15.09c0 2.55 0.57 3.06 3.08 3.26v2.36h-10.01v-2.36c2.51-0.16 3.09-0.8 3.09-3.1v-17.32c-1.09-1.46-2.02-2.14-3.17-2.39v-2.36h7.87l15.45 19.4-0.08-13.99c0-2.39-0.7-2.89-3.1-3.09v-2.32h9.72v2.28c-2.19 0.24-2.93 0.95-2.97 3.04v22.33l-3.74 0.09-16.22-20.92z" fill="white"/>
  <path d="m86.52 75.73 0.52-7.22h2.52c0.82 4.73 3.08 6.2 6.45 6.2 3.06 0 4.61-1.43 4.61-3.94 0-2.13-1.31-3.39-3.94-4.74l-3.63-1.91c-3.29-1.61-5.88-3.65-5.88-8.15 0-4.81 3.63-8.05 9.96-8.05 2.75 0 5.38 0.61 7.51 1.47l-0.33 7.22h-2.17c-0.82-3.9-2.46-5.54-5.66-5.54-2.59 0-4.06 1.48-4.06 3.55 0 1.92 1.13 3.05 3.57 4.27l3.9 2.02c3.85 1.96 6.02 3.95 6.02 8.18 0 5.12-4.1 8.37-10.75 8.37-2.94 0-6.11-0.7-8.64-1.73z" fill="white"/>
  <path d="m132.6 48.44 0.16 7.66h-2.51c-0.82-3.63-1.52-4.74-4.31-4.74h-2.51v19.55c0 2.3 0.61 2.87 3.28 3.03v2.33h-12.53v-2.33c2.67-0.21 3.28-0.73 3.28-3.2v-19.38h-2.4c-2.79 0-3.55 1.26-4.37 4.75h-2.48l0.16-7.66 24.23-0.01z" fill="white"/>
  <path d="m136.9 66.9v-13.59c0-2.08-0.51-2.57-2.46-2.69v-2.17h11.02v2.17c-1.95 0.12-2.56 0.73-2.56 2.52v13.29c0 5.24 2.21 7.11 6.15 7.11 4.35 0 6.52-2.36 6.52-7.8v-11.86c0-2.25-0.82-3.07-3.09-3.27v-2.17h9.71v2.13c-2.25 0.29-1.43 0.9-1.88 3.19v12.46c0 7.39-3.86 11.2-11.67 11.2-7.28 0-11.74-3.16-11.74-10.52z" fill="white"/>
  <path d="m165.6 76.27v-2.36c2.16-0.25 2.61-0.58 2.61-2.8v-17.21c0-2.22-0.45-2.56-2.61-2.8v-2.36h12.05c6.69 0 10.24 2.21 10.24 6.78 0 3.19-2.32 5.14-4.75 6.11 3.63 0.78 5.93 3.05 5.93 6.63 0 4.81-4.34 8.01-11.54 8.01h-11.93zm8.4-25v9.38h2.31c3.64 0 5.23-1.95 5.23-4.72 0-2.83-1.71-4.66-5.15-4.66h-2.39zm0 12.11v9.64c0.78 0.29 1.8 0.45 3.06 0.45 3.63 0 5.54-1.91 5.54-5.04 0-2.82-1.66-4.65-5.79-4.65l-2.81-0.4z" fill="white"/>
  <path d="m192.3 73.91c2.16-0.25 2.61-0.58 2.61-2.8v-17.21c0-2.22-0.45-2.56-2.61-2.8v-2.36h20.07v6.32h-2.22c-1.03-2.97-1.82-3.75-4.32-3.75h-4.02v9.3h4.23c1.78 0 2.31-0.86 2.68-2.81h1.79v8.13h-1.79c-0.37-2.13-0.98-2.99-2.68-2.99h-4.23v9.68c1.07 0.29 2.39 0.45 4.1 0.45 3.49 0 4.71-1 5.8-4.58h2.19l-0.65 7.78h-20.95v-2.36z" fill="white"/>
  <path d="m225.2 56.1 0.08 14.85c0 2.39 0.53 2.83 2.89 3.04v2.28h-9.71v-2.28c2.21-0.21 2.86-0.82 2.86-2.95v-17.61c-1.04-1.34-2.01-2.12-3.11-2.36v-2.32h8.55l14.6 19.12-0.08-13.46c0-2.4-0.82-3.1-3.12-3.3v-2.36h9.33v2.32c-1.96 0.24-2.69 1.03-2.77 3.11v22.51l-4.85 0.45-14.67-21.04z" fill="white"/>
  <path d="m45.77 88.36h4.71v1.03h-3.6v2.97h3.23v0.95h-3.23v3.62h-1.11v-8.57z" fill="white"/>
  <path d="m51.31 93.76c0-2.38 1.02-3.62 2.94-3.62 2.02 0 2.57 1.5 2.57 2.84v0.95h-4.41c0.05 1.69 0.7 2.23 1.97 2.23 0.93 0 1.53-0.38 1.93-0.66l0.3 0.87c-0.46 0.34-1.27 0.7-2.33 0.7-2.03 0-2.97-1.11-2.97-3.31zm4.4-0.69c-0.01-1.23-0.55-2.05-1.48-2.05-1.06 0-1.62 0.7-1.74 2.05h3.22z" fill="white"/>
  <path d="m58.66 90.28h0.96l0.09 1.14c0.43-0.74 1.04-1.27 1.94-1.27 0.46 0 0.87 0.15 1.07 0.31l-0.28 1c-0.26-0.18-0.62-0.31-1.02-0.31-0.79 0-1.34 0.69-1.67 1.37v4.41h-1.09v-6.65z" fill="white"/>
  <path d="m63.71 88.73c0-0.47 0.27-0.74 0.71-0.74s0.71 0.27 0.71 0.74c0 0.44-0.27 0.71-0.71 0.71s-0.71-0.27-0.71-0.71zm0.2 1.55h1.09v6.65h-1.09v-6.65z" fill="white"/>
  <path d="m66.77 93.76c0-2.38 1.02-3.62 2.94-3.62 2.02 0 2.57 1.5 2.57 2.84v0.95h-4.41c0.05 1.69 0.7 2.23 1.97 2.23 0.93 0 1.53-0.38 1.93-0.66l0.3 0.87c-0.46 0.34-1.27 0.7-2.33 0.7-2.03 0-2.97-1.11-2.97-3.31zm4.4-0.69c-0.01-1.23-0.55-2.05-1.48-2.05-1.06 0-1.62 0.7-1.74 2.05h3.22z" fill="white"/>
  <path d="m74.12 90.28h1.01l0.05 1.21c0.5-0.77 1.21-1.35 2.3-1.35 1.5 0 2.07 0.97 2.07 2.48v4.31h-1.09v-4c0-1.34-0.57-1.82-1.4-1.82-0.9 0-1.54 0.77-1.85 1.46v4.36h-1.09v-6.65z" fill="white"/>
  <path d="m80.89 90.28h1.12l1.5 5.66 1.43-5.66h1.23l1.49 5.66 1.46-5.66h1.1l-1.88 6.65h-1.27l-1.51-5.44-1.44 5.44h-1.3l-1.93-6.65z" fill="white"/>
  <path d="m91.3 93.6c0-2.39 1.01-3.46 2.94-3.46 2.03 0 2.85 1.12 2.85 3.38 0 2.39-0.93 3.54-2.93 3.54-1.99 0-2.86-1.17-2.86-3.46zm4.71-0.09c0-1.45-0.49-2.49-1.78-2.49-1.42 0-1.85 1.01-1.85 2.62 0 1.51 0.51 2.55 1.78 2.55 1.42 0 1.85-1.11 1.85-2.68z" fill="white"/>
  <path d="m99.01 88.15h1.09v3.27c0.48-0.73 1.17-1.28 2.21-1.28 1.5 0 2.07 0.97 2.07 2.48v4.31h-1.09v-4c0-1.22-0.5-1.82-1.4-1.82-0.89 0-1.5 0.8-1.79 1.46v4.36h-1.09v-8.78z" fill="white"/>
  <path d="m106.4 90.28h1.01l0.05 1.21c0.5-0.77 1.21-1.35 2.3-1.35 1.5 0 2.07 0.97 2.07 2.48v4.31h-1.09v-4c0-1.34-0.57-1.82-1.4-1.82-0.9 0-1.54 0.77-1.85 1.46v4.36h-1.09v-6.65z" fill="white"/>
  <path d="m113.9 94.59v-4.31h1.09v4.03c0 1.25 0.51 1.79 1.41 1.79 0.93 0 1.54-0.86 1.83-1.49v-4.33h1.09v6.65h-0.99l-0.07-1.21c-0.47 0.76-1.18 1.34-2.21 1.34-1.5 0-2.15-0.96-2.15-2.47z" fill="white"/>
  <path d="m121.3 90.28h1.01l0.05 1.21c0.5-0.77 1.21-1.35 2.3-1.35 1.5 0 2.07 0.97 2.07 2.48v4.31h-1.09v-4c0-1.34-0.57-1.82-1.4-1.82-0.9 0-1.54 0.77-1.85 1.46v4.36h-1.09v-6.65z" fill="white"/>
  <path d="m128.4 99.22 0.26-0.96c0.6 0.3 1.25 0.53 2.25 0.53 1.25 0 1.91-0.66 1.94-2.07l0.02-1.08c-0.46 0.8-1.19 1.23-2.12 1.23-1.67 0-2.53-1.14-2.53-3.27 0-2.24 1.21-3.46 2.89-3.46 0.96 0 1.61 0.49 1.96 1.02l0.18-0.88h0.65v6.43c0 1.9-1.09 2.96-2.94 2.96-1.08 0-1.96-0.2-2.56-0.45zm4.42-4.54v-2.41c-0.47-0.78-1.11-1.2-1.91-1.2-1.28 0-1.62 1.19-1.62 2.5 0 1.39 0.51 2.36 1.72 2.36 0.76 0 1.4-0.54 1.81-1.25z" fill="white"/>
  <path d="m135.6 93.76c0-2.38 1.02-3.62 2.94-3.62 2.02 0 2.57 1.5 2.57 2.84v0.95h-4.41c0.05 1.69 0.7 2.23 1.97 2.23 0.93 0 1.53-0.38 1.93-0.66l0.3 0.87c-0.46 0.34-1.27 0.7-2.33 0.7-2.03 0-2.97-1.11-2.97-3.31zm4.38-0.69c-0.01-1.23-0.55-2.05-1.48-2.05-1.06 0-1.62 0.7-1.74 2.05h3.22z" fill="white"/>
  <path d="m142.7 90.28h1.01l0.05 1.21c0.5-0.77 1.21-1.35 2.3-1.35 1.5 0 2.07 0.97 2.07 2.48v4.31h-1.09v-4c0-1.34-0.57-1.82-1.4-1.82-0.9 0-1.54 0.77-1.85 1.46v4.36h-1.09v-6.65z" fill="white"/>
  <path d="m154.1 93.38c0-0.79 0.45-1.17 1.14-1.17 0.74 0 1.12 0.43 1.12 1.13 0 0.74-0.45 1.15-1.14 1.15-0.71 0-1.12-0.43-1.12-1.11z" fill="white"/>
  <path d="m162.8 88.36h5.04v0.99h-3.93v2.84h3.48v0.96h-3.48v2.8h4.02v0.99h-5.13v-8.58z" fill="white"/>
  <path d="m169.6 96.58 0.29-0.92c0.58 0.3 1.25 0.55 2.17 0.55 0.93 0 1.42-0.35 1.42-1.07 0-0.55-0.34-0.82-1.46-1.09l-0.39-0.1c-1.25-0.32-1.82-0.92-1.82-1.9 0-1.12 0.86-1.88 2.37-1.88 0.72 0 1.4 0.22 1.85 0.47l-0.26 0.92c-0.52-0.3-1.14-0.53-1.72-0.53-0.86 0-1.23 0.4-1.23 0.98 0 0.55 0.34 0.82 1.27 1.07l0.34 0.09c1.42 0.37 2.06 0.84 2.06 1.83 0 1.27-0.91 2.07-2.52 2.07-0.9-0.01-1.73-0.24-2.37-0.49z" fill="white"/>
  <path d="m175.8 93.76c0-2.38 1.02-3.62 2.94-3.62 2.02 0 2.57 1.5 2.57 2.84v0.95h-4.41c0.05 1.69 0.7 2.23 1.97 2.23 0.93 0 1.53-0.38 1.93-0.66l0.3 0.87c-0.46 0.34-1.27 0.7-2.33 0.7-2.03 0-2.97-1.11-2.97-3.31zm4.39-0.69c-0.01-1.23-0.55-2.05-1.48-2.05-1.06 0-1.62 0.7-1.74 2.05h3.22z" fill="white"/>
  <path d="m183.2 90.28h1.01l0.05 1.21c0.5-0.77 1.21-1.35 2.3-1.35 1.5 0 2.07 0.97 2.07 2.48v4.31h-1.09v-4c0-1.34-0.57-1.82-1.4-1.82-0.9 0-1.54 0.77-1.85 1.46v4.36h-1.09v-6.65z" fill="white"/>
  <path d="m190.2 96.58 0.29-0.92c0.58 0.3 1.25 0.55 2.17 0.55 0.93 0 1.42-0.35 1.42-1.07 0-0.55-0.34-0.82-1.46-1.09l-0.39-0.1c-1.25-0.32-1.82-0.92-1.82-1.9 0-1.12 0.86-1.88 2.37-1.88 0.72 0 1.4 0.22 1.85 0.47l-0.26 0.92c-0.52-0.3-1.14-0.53-1.72-0.53-0.86 0-1.23 0.4-1.23 0.98 0 0.55 0.34 0.82 1.27 1.07l0.34 0.09c1.42 0.37 2.06 0.84 2.06 1.83 0 1.27-0.91 2.07-2.52 2.07-0.9-0.01-1.73-0.24-2.37-0.49z" fill="white"/>
</svg>